<?xml version="1.0" encoding="UTF-8" standalone="no"?>
<!-- Created with Inkscape (http://www.inkscape.org/) -->

<svg
   width="512"
   height="512"
   viewBox="0 0 135.46666 135.46667"
   version="1.1"
   id="svg5"
   inkscape:version="1.1.1 (3bf5ae0d25, 2021-09-20, custom)"
   sodipodi:docname="logo.svg"
   xmlns:inkscape="http://www.inkscape.org/namespaces/inkscape"
   xmlns:sodipodi="http://sodipodi.sourceforge.net/DTD/sodipodi-0.dtd"
   xmlns="http://www.w3.org/2000/svg"
   xmlns:svg="http://www.w3.org/2000/svg">
  <sodipodi:namedview
     id="namedview7"
     pagecolor="#ffffff"
     bordercolor="#999999"
     borderopacity="1"
     inkscape:pageshadow="0"
     inkscape:pageopacity="0"
     inkscape:pagecheckerboard="0"
     inkscape:document-units="mm"
     showgrid="false"
     units="px"
     width="512px"
     inkscape:zoom="1"
     inkscape:cx="242"
     inkscape:cy="316"
     inkscape:window-width="1920"
     inkscape:window-height="1027"
     inkscape:window-x="0"
     inkscape:window-y="0"
     inkscape:window-maximized="1"
     inkscape:current-layer="layer1" />
  <defs
     id="defs2">
    <rect
       x="18.35558"
       y="164.02741"
       width="452.37698"
       height="189.88212"
       id="rect3604" />
  </defs>
  <g
     inkscape:label="Layer 1"
     inkscape:groupmode="layer"
     id="layer1">
    <rect
       style="fill:#999999;stroke:#333333;stroke-width:1.923;stroke-miterlimit:4;stroke-dasharray:none;stroke-linejoin:bevel"
       id="rect846"
       width="91.175148"
       height="43.042221"
       x="-22.551477"
       y="63.924332"
       transform="rotate(-37.103554)" />
    <rect
       style="fill:#ececec;stroke:#666666;stroke-width:1.823;stroke-miterlimit:4;stroke-dasharray:none;stroke-linejoin:bevel"
       id="rect846-3"
       width="91.175148"
       height="43.042221"
       x="-42.166439"
       y="86.236557"
       transform="rotate(-37.103554)" />
    <path
       id="rect846-6"
       style="fill:#ececec;stroke:#666666;stroke-width:1.823;stroke-miterlimit:4;stroke-dasharray:none;stroke-linejoin:bevel"
       d="M 94.170537,3.5907302 21.454046,58.592542 34.914206,76.387837 91.98669,33.218378 l 12.5057,16.533361 15.64349,-11.832871 z" />
    <text
       xml:space="preserve"
       transform="scale(0.26458333)"
       id="text3602"
       style="font-style:normal;font-weight:normal;font-size:40px;line-height:1.25;font-family:sans-serif;white-space:pre;shape-inside:url(#rect3604);fill:#000000;fill-opacity:1;stroke:none" />
    <g
       aria-label="shape
of
web"
       id="text11354"
       style="font-size:42.3333px;line-height:0.85;stroke:#1a1a1a;stroke-width:1.823;stroke-linejoin:round;paint-order:fill markers stroke;stroke-miterlimit:4;stroke-dasharray:none">
      <path
         d="m 22.140519,39.088532 q 0,0.516764 -0.268717,0.950846 -0.248047,0.434082 -0.764811,0.764811 -0.537434,0.330728 -1.384927,0.537434 -0.826822,0.186035 -1.943032,0.186035 -0.930176,0 -1.819009,-0.186035 -0.868164,-0.186035 -1.550292,-0.599446 -0.682129,-0.392741 -1.11621,-1.033528 -0.434082,-0.661458 -0.496094,-1.570962 H 7.3197295 q 0,1.364256 0.6614579,2.728513 0.6821283,1.343586 1.9843735,2.397785 1.3022451,1.074869 3.2246071,1.736327 1.943032,0.661458 4.46484,0.661458 2.294432,0 4.154782,-0.496094 1.86035,-0.516764 3.183266,-1.426268 1.302245,-0.909505 2.005044,-2.149738 0.72347,-1.260904 0.72347,-2.749184 0,-1.612304 -0.72347,-2.769855 -0.702799,-1.178222 -1.963703,-2.005044 -1.260904,-0.806152 -2.997231,-1.322916 -1.736326,-0.516764 -3.762041,-0.847493 -1.405598,-0.206705 -2.315102,-0.475423 -0.909505,-0.289387 -1.426269,-0.640787 -0.537434,-0.330729 -0.74414,-0.74414 -0.206706,-0.434082 -0.206706,-0.930175 0,-0.496093 0.227377,-0.930175 0.248046,-0.454752 0.702798,-0.785481 0.496094,-0.37207 1.281575,-0.578776 0.785481,-0.206705 1.83968,-0.206705 1.240233,0 2.108397,0.310058 0.888833,0.310058 1.405597,0.826822 0.37207,0.392741 0.558105,0.888834 0.186035,0.475423 0.186035,1.033528 h 5.746415 q 0,-1.550292 -0.682128,-2.873207 -0.682128,-1.322916 -1.963703,-2.294432 -1.302245,-0.950846 -3.162595,-1.48828 -1.86035,-0.558105 -4.196123,-0.558105 -2.232421,0 -4.010088,0.558105 -1.777668,0.558105 -3.017902,1.50895 -1.2402333,0.950846 -1.9016911,2.21175 -0.6614579,1.260904 -0.6614579,2.645831 0,1.426269 0.6407873,2.521808 0.6614578,1.09554 1.8190087,1.922362 1.157552,0.847493 2.769855,1.446939 1.632974,0.578776 3.596677,0.971516 1.550292,0.289388 2.563149,0.578776 1.012857,0.289388 1.632974,0.620117 0.599446,0.351399 0.826822,0.74414 0.248047,0.39274 0.248047,0.909504 z"
         style="font-weight:bold;font-family:'Roboto Mono';-inkscape-font-specification:'Roboto Mono Bold';text-align:end;text-anchor:end;fill:#8d8d8d;stroke-width:1.823;stroke-miterlimit:4;stroke-dasharray:none;stroke-linejoin:round"
         id="path43698" />
      <path
         d="M 38.863001,25.942058 V 13.477712 h -5.746415 v 31.749976 h 5.746415 V 29.083983 q 0.330729,-0.434082 0.723469,-0.785482 0.413411,-0.351399 0.909505,-0.599446 0.537434,-0.289388 1.198892,-0.434082 0.661458,-0.144693 1.426269,-0.144693 0.992186,0 1.777667,0.268717 0.785482,0.248046 1.343587,0.785481 0.558105,0.537434 0.847493,1.405598 0.310058,0.868163 0.310058,2.067056 v 13.580556 h 5.746415 V 31.688473 q 0,-2.459797 -0.599446,-4.196123 -0.578776,-1.756998 -1.632974,-2.873208 -1.054199,-1.11621 -2.521808,-1.632974 -1.46761,-0.537434 -3.224607,-0.537434 -1.198893,0 -2.273762,0.351399 -1.074869,0.3514 -1.963703,0.992187 -0.578775,0.413411 -1.11621,0.971516 -0.516764,0.537435 -0.950845,1.178222 z"
         style="font-weight:bold;font-family:'Roboto Mono';-inkscape-font-specification:'Roboto Mono Bold';text-align:end;text-anchor:end;fill:#8d8d8d;stroke-width:1.823;stroke-miterlimit:4;stroke-dasharray:none;stroke-linejoin:round"
         id="path43700" />
      <path
         d="m 72.493998,45.227688 h 5.829097 v -0.3514 q -0.434081,-0.847492 -0.661457,-2.025714 -0.227377,-1.178222 -0.227377,-2.976561 v -9.591138 q 0,-1.943033 -0.723469,-3.410642 -0.72347,-1.48828 -2.005044,-2.459796 -1.281575,-0.971517 -3.038572,-1.46761 -1.736327,-0.496093 -3.762041,-0.496093 -2.253091,0 -4.010089,0.578775 -1.736326,0.558105 -2.935219,1.529621 -1.219563,0.971517 -1.86035,2.253091 -0.620117,1.281575 -0.620117,2.707843 h 5.746415 q 0,-0.599446 0.165365,-1.095539 0.186035,-0.496094 0.558105,-0.847493 0.413411,-0.392741 1.074869,-0.599446 0.661458,-0.227376 1.570962,-0.227376 1.033528,0 1.798339,0.268717 0.785481,0.248046 1.302245,0.723469 0.496093,0.454753 0.74414,1.09554 0.248047,0.620117 0.248047,1.405598 v 1.322915 H 68.48391 q -2.480467,0 -4.402829,0.454753 -1.901691,0.434081 -3.203936,1.281574 -1.446939,0.930175 -2.170409,2.377114 -0.723469,1.426269 -0.723469,3.286619 0,1.446939 0.578776,2.687172 0.578775,1.219563 1.612303,2.108397 1.033528,0.888834 2.459796,1.384928 1.446939,0.496093 3.162596,0.496093 1.054198,0 1.963703,-0.206706 0.909504,-0.186035 1.674315,-0.537434 0.74414,-0.330729 1.364257,-0.785481 0.620116,-0.454753 1.095539,-0.971516 0.103353,0.599446 0.248047,1.13688 0.144694,0.537435 0.351399,0.950846 z m -5.477697,-4.030759 q -0.806152,0 -1.426269,-0.186035 -0.599446,-0.206705 -1.012857,-0.537434 -0.413411,-0.3514 -0.640788,-0.847493 -0.206705,-0.516764 -0.206705,-1.11621 0,-0.764811 0.289388,-1.405598 0.289388,-0.661458 0.888834,-1.136881 0.599446,-0.454752 1.550292,-0.702799 0.950845,-0.268717 2.294431,-0.268717 h 2.93522 v 3.844724 q -0.248047,0.434081 -0.682129,0.868163 -0.434082,0.413411 -1.033528,0.74414 -0.599446,0.330729 -1.343586,0.537435 -0.74414,0.206705 -1.612303,0.206705 z"
         style="font-weight:bold;font-family:'Roboto Mono';-inkscape-font-specification:'Roboto Mono Bold';text-align:end;text-anchor:end;fill:#8d8d8d;stroke-width:1.823;stroke-miterlimit:4;stroke-dasharray:none;stroke-linejoin:round"
         id="path43702" />
      <path
         d="m 84.007501,53.82664 h 5.746415 V 43.284655 q 0.392741,0.434082 0.826823,0.785482 0.434081,0.351399 0.909504,0.640787 0.806152,0.454752 1.736327,0.682128 0.950846,0.248047 2.067056,0.248047 2.108396,0 3.741371,-0.868163 1.632973,-0.868164 2.749183,-2.397785 1.09554,-1.508951 1.65365,-3.596677 0.57877,-2.087726 0.57877,-4.526852 V 33.81754 q 0,-2.542478 -0.57877,-4.630205 -0.55811,-2.108397 -1.67432,-3.617347 -1.11621,-1.48828 -2.749184,-2.294432 -1.632974,-0.826822 -3.762042,-0.826822 -1.033527,0 -1.943032,0.227376 -0.888834,0.206705 -1.632974,0.599446 -0.620117,0.330729 -1.157551,0.785481 -0.537435,0.434082 -0.992187,0.992187 l -0.206705,-2.191079 h -5.312334 z m 14.262685,-20.0091 v 0.434082 q 0,1.384927 -0.248047,2.625161 -0.248047,1.219563 -0.785481,2.149738 -0.537434,0.930175 -1.405598,1.467609 -0.847493,0.537435 -2.067056,0.537435 -0.76481,0 -1.384927,-0.144694 -0.620117,-0.165365 -1.09554,-0.454752 -0.496093,-0.310059 -0.888833,-0.744141 -0.372071,-0.434081 -0.640788,-0.971516 V 29.37337 q 0.289388,-0.578775 0.682129,-1.012857 0.413411,-0.434082 0.950845,-0.72347 0.475423,-0.248046 1.054199,-0.37207 0.578775,-0.144693 1.281574,-0.144693 1.219563,0 2.067056,0.516763 0.868163,0.516764 1.426268,1.405598 0.537435,0.909505 0.785482,2.149738 0.268717,1.219563 0.268717,2.625161 z"
         style="font-weight:bold;font-family:'Roboto Mono';-inkscape-font-specification:'Roboto Mono Bold';text-align:end;text-anchor:end;fill:#8d8d8d;stroke-width:1.823;stroke-miterlimit:4;stroke-dasharray:none;stroke-linejoin:round"
         id="path43704" />
      <path
         d="m 120.18098,45.641099 q 3.24527,0 5.62239,-1.260904 2.37711,-1.260904 3.47265,-2.811196 l -2.87321,-3.100583 q -0.99218,1.281574 -2.58382,1.922361 -1.59163,0.640788 -3.28662,0.640788 -1.19889,0 -2.21174,-0.37207 -1.01286,-0.37207 -1.79834,-1.054199 -0.76481,-0.661458 -1.21957,-1.467609 -0.45475,-0.826823 -0.74414,-2.170409 v -0.06201 h 15.17219 v -2.439125 q 0,-2.459797 -0.68213,-4.485511 -0.68212,-2.046385 -1.98437,-3.493324 -1.32291,-1.446939 -3.22461,-2.232421 -1.88102,-0.806151 -4.29947,-0.806151 -2.33577,0 -4.32015,0.847492 -1.98437,0.847493 -3.43131,2.377115 -1.44694,1.529621 -2.25309,3.658688 -0.80615,2.108397 -0.80615,4.671546 v 0.826822 q 0,2.253091 0.80615,4.237465 0.82682,1.963703 2.33577,3.410642 1.50895,1.467609 3.61735,2.315102 2.1084,0.847493 4.69222,0.847493 z m -0.68213,-18.54149 q 1.09554,0 1.92236,0.351399 0.84749,0.330729 1.42627,0.909505 0.57877,0.599446 0.9095,1.405598 0.33073,0.806152 0.33073,1.715656 v 0.454752 h -9.42577 q 0.2067,-1.095539 0.62011,-1.984373 0.41341,-0.888834 1.03353,-1.529621 0.59945,-0.640788 1.4056,-0.971517 0.80615,-0.351399 1.77767,-0.351399 z"
         style="font-weight:bold;font-family:'Roboto Mono';-inkscape-font-specification:'Roboto Mono Bold';text-align:end;text-anchor:end;fill:#8d8d8d;stroke-width:1.823;stroke-miterlimit:4;stroke-dasharray:none;stroke-linejoin:round"
         id="path43706" />
      <path
         d="m 83.139334,71.292809 v 0.434081 q 0,2.459797 0.702799,4.547523 0.702799,2.067056 2.067056,3.596677 1.343586,1.529621 3.307289,2.397785 1.984373,0.847492 4.506181,0.847492 2.501138,0 4.464841,-0.847492 1.9637,-0.868164 3.30729,-2.397785 1.34359,-1.529621 2.04638,-3.596677 0.7028,-2.087726 0.7028,-4.547523 v -0.434081 q 0,-2.439126 -0.7028,-4.506182 -0.70279,-2.087726 -2.04638,-3.617347 -1.36426,-1.529622 -3.327961,-2.397785 -1.963703,-0.868163 -4.485511,-0.868163 -2.521808,0 -4.485511,0.868163 -1.943032,0.868163 -3.286618,2.397785 -1.364257,1.529621 -2.067056,3.617347 -0.702799,2.067056 -0.702799,4.506182 z m 5.746415,0.434081 v -0.434081 q 0,-1.364257 0.268717,-2.58382 0.268717,-1.219563 0.847493,-2.149738 0.578776,-0.930175 1.48828,-1.46761 0.909505,-0.537434 2.191079,-0.537434 1.302245,0 2.21175,0.537434 0.909504,0.537435 1.48828,1.46761 0.558105,0.930175 0.826822,2.149738 0.268718,1.219563 0.268718,2.58382 v 0.434081 q 0,1.405598 -0.268718,2.645832 -0.268717,1.219563 -0.826822,2.129067 -0.578776,0.930175 -1.48828,1.46761 -0.909505,0.537434 -2.170409,0.537434 -1.302245,0 -2.23242,-0.537434 -0.909504,-0.537435 -1.48828,-1.46761 -0.578776,-0.909504 -0.847493,-2.129067 -0.268717,-1.240234 -0.268717,-2.645832 z"
         style="font-weight:bold;font-family:'Roboto Mono';-inkscape-font-specification:'Roboto Mono Bold';text-align:end;text-anchor:end;fill:#8d8d8d;stroke-width:1.823;stroke-miterlimit:4;stroke-dasharray:none;stroke-linejoin:round"
         id="path43708" />
      <path
         d="m 114.88931,82.682286 h 5.76709 V 64.554207 h 8.06151 V 60.316743 H 120.6564 V 59.09718 q 0,-0.992187 0.24804,-1.777668 0.26872,-0.785481 0.80615,-1.322916 0.59945,-0.640787 1.61231,-0.971516 1.01286,-0.330729 2.45979,-0.330729 1.34359,0 2.33578,0.124023 0.99218,0.124024 1.77767,0.289388 l 0.37207,-4.506181 q -0.7028,-0.124024 -1.36426,-0.227376 -0.64079,-0.103353 -1.28158,-0.186035 -0.64078,-0.08268 -1.32291,-0.124024 -0.66146,-0.06201 -1.38493,-0.06201 -2.29443,0 -4.15478,0.599446 -1.86035,0.578775 -3.1626,1.736327 -1.30224,1.157551 -2.00504,2.852536 -0.7028,1.694986 -0.7028,3.906736 v 1.219563 h -5.87044 v 4.237464 h 5.87044 z"
         style="font-weight:bold;font-family:'Roboto Mono';-inkscape-font-specification:'Roboto Mono Bold';text-align:end;text-anchor:end;fill:#8d8d8d;stroke-width:1.823;stroke-miterlimit:4;stroke-dasharray:none;stroke-linejoin:round"
         id="path43710" />
      <path
         d="m 60.174345,120.13688 h 5.043616 l 2.377114,-11.94758 0.454752,-2.27376 0.475423,2.27376 2.459796,11.94758 h 5.043616 L 80.03875,97.771341 h -5.270992 l -1.653644,13.187819 -0.289388,2.1704 -0.392741,-2.12906 -2.418455,-13.229159 h -3.844724 l -2.418455,13.291169 -0.39274,2.12907 -0.268718,-2.12907 -1.674315,-13.291169 h -5.250321 z"
         style="font-weight:bold;font-family:'Roboto Mono';-inkscape-font-specification:'Roboto Mono Bold';text-align:end;text-anchor:end;fill:#8d8d8d;stroke-width:1.823;stroke-miterlimit:4;stroke-dasharray:none;stroke-linejoin:round"
         id="path43712" />
      <path
         d="m 94.776858,120.55029 q 3.245278,0 5.622392,-1.2609 2.37711,-1.2609 3.47265,-2.81119 l -2.8732,-3.10059 q -0.99219,1.28158 -2.583823,1.92236 -1.591633,0.64079 -3.286619,0.64079 -1.198892,0 -2.21175,-0.37207 -1.012857,-0.37207 -1.798338,-1.0542 -0.764811,-0.66146 -1.219563,-1.46761 -0.454752,-0.82682 -0.74414,-2.17041 v -0.062 h 15.172193 v -2.43912 q 0,-2.4598 -0.68213,-4.48551 -0.68213,-2.04639 -1.98438,-3.49333 -1.32291,-1.446938 -3.224603,-2.232419 -1.881021,-0.806152 -4.299476,-0.806152 -2.335773,0 -4.320146,0.847493 -1.984374,0.847493 -3.431313,2.377118 -1.446939,1.52962 -2.253091,3.65869 -0.806151,2.10839 -0.806151,4.67154 v 0.82682 q 0,2.25309 0.806151,4.23747 0.826823,1.9637 2.335773,3.41064 1.508951,1.46761 3.617348,2.3151 2.108397,0.84749 4.692216,0.84749 z M 94.09473,102.0088 q 1.09554,0 1.922362,0.3514 0.847493,0.33073 1.426268,0.90951 0.578776,0.59945 0.909505,1.4056 0.330729,0.80615 0.330729,1.71565 v 0.45476 H 89.25782 q 0.206705,-1.09554 0.620116,-1.98438 0.413412,-0.88883 1.033528,-1.52962 0.599446,-0.64079 1.405598,-0.97152 0.806152,-0.3514 1.777668,-0.3514 z"
         style="font-weight:bold;font-family:'Roboto Mono';-inkscape-font-specification:'Roboto Mono Bold';text-align:end;text-anchor:end;fill:#8d8d8d;stroke-width:1.823;stroke-miterlimit:4;stroke-dasharray:none;stroke-linejoin:round"
         id="path43714" />
      <path
         d="m 129.48272,109.18149 v -0.43408 q 0,-2.02572 -0.37207,-3.80339 -0.35139,-1.77766 -1.09553,-3.20393 -0.47543,-0.88884 -1.09554,-1.63298 -0.62012,-0.764807 -1.38493,-1.302241 -0.95085,-0.702799 -2.17041,-1.074869 -1.19889,-0.372071 -2.64583,-0.372071 -1.0542,0 -1.9637,0.227377 -0.88884,0.206705 -1.65365,0.640787 -0.53743,0.289388 -1.01286,0.702799 -0.47542,0.39274 -0.88883,0.868163 V 88.386908 h -5.74642 v 31.749972 h 5.16764 l 0.26872,-2.37711 q 0.3514,0.45475 0.74414,0.84749 0.39274,0.37207 0.84749,0.68213 0.8475,0.62012 1.9017,0.93018 1.07486,0.33072 2.37711,0.33072 1.42627,0 2.60449,-0.37207 1.19889,-0.35139 2.14974,-1.03352 1.0542,-0.72347 1.81901,-1.81901 0.78548,-1.09554 1.2609,-2.43913 0.43408,-1.21956 0.66146,-2.64583 0.22737,-1.44694 0.22737,-3.05924 z m -5.74641,-0.43408 v 0.43408 q 0,0.86816 -0.0827,1.67431 -0.062,0.80616 -0.22738,1.48828 -0.2067,0.93018 -0.62012,1.67432 -0.39274,0.72347 -1.03352,1.17822 -0.45476,0.33073 -1.07487,0.51676 -0.62012,0.18604 -1.38493,0.18604 -0.88883,0 -1.59163,-0.20671 -0.68213,-0.2067 -1.19889,-0.59944 -0.43409,-0.31006 -0.76482,-0.72347 -0.31005,-0.43408 -0.5581,-0.95085 v -8.90901 q 0.18603,-0.39274 0.41341,-0.72347 0.22738,-0.3514 0.49609,-0.62011 0.55811,-0.55811 1.34359,-0.8475 0.78548,-0.28938 1.81901,-0.28938 0.76481,0 1.36426,0.18603 0.59944,0.16536 1.07487,0.51676 0.72346,0.55811 1.07486,1.24024 0.37207,0.66146 0.59945,1.50895 0.18604,0.72347 0.26872,1.55029 0.0827,0.82682 0.0827,1.71566 z"
         style="font-weight:bold;font-family:'Roboto Mono';-inkscape-font-specification:'Roboto Mono Bold';text-align:end;text-anchor:end;fill:#8d8d8d;stroke-width:1.823;stroke-miterlimit:4;stroke-dasharray:none;stroke-linejoin:round"
         id="path43716" />
    </g>
  </g>
</svg>
