<svg width="512" height="512" viewBox="0 0 135.467 135.467" xmlns="http://www.w3.org/2000/svg"><path style="fill:#999;stroke:#333;stroke-width:1.923;stroke-miterlimit:4;stroke-dasharray:none;stroke-linejoin:bevel" transform="rotate(-37.104)" d="M-22.551 63.924h91.175v43.042h-91.175z"/><path style="fill:#ececec;stroke:#666;stroke-width:1.823;stroke-miterlimit:4;stroke-dasharray:none;stroke-linejoin:bevel" transform="rotate(-37.104)" d="M-42.166 86.237h91.175v43.042h-91.175z"/><path style="fill:#ececec;stroke:#666;stroke-width:1.823;stroke-miterlimit:4;stroke-dasharray:none;stroke-linejoin:bevel" d="M94.17 3.59 21.455 58.594l13.46 17.795 57.073-43.17 12.505 16.534 15.644-11.833z"/><g style="font-size:42.3333px;line-height:.85;stroke:#1a1a1a;stroke-width:1.823;stroke-linejoin:round;paint-order:fill markers stroke;stroke-miterlimit:4;stroke-dasharray:none"><path d="M22.14 39.089q0 .516-.268.95-.248.434-.765.765-.537.33-1.385.538-.827.186-1.943.186-.93 0-1.819-.186-.868-.186-1.55-.6-.682-.393-1.116-1.033-.435-.662-.497-1.571H7.32q0 1.364.661 2.728.682 1.344 1.985 2.398Q11.268 44.339 13.19 45q1.943.662 4.465.662 2.294 0 4.155-.496 1.86-.517 3.183-1.427 1.302-.91 2.005-2.15.724-1.26.724-2.749 0-1.612-.724-2.77-.703-1.178-1.964-2.004-1.26-.807-2.997-1.323-1.736-.517-3.762-.848-1.405-.207-2.315-.475-.91-.29-1.426-.641-.538-.33-.744-.744-.207-.434-.207-.93 0-.496.227-.93.248-.455.703-.786.496-.372 1.282-.579.785-.206 1.84-.206 1.24 0 2.108.31.889.31 1.405.826.372.393.558.89.186.475.186 1.033h5.747q0-1.55-.682-2.873-.682-1.323-1.964-2.295-1.302-.95-3.163-1.488-1.86-.558-4.196-.558-2.232 0-4.01.558-1.777.558-3.018 1.509-1.24.95-1.901 2.212-.662 1.26-.662 2.645 0 1.427.641 2.522.661 1.096 1.819 1.923 1.158.847 2.77 1.446 1.633.58 3.597.972 1.55.29 2.563.579 1.013.29 1.633.62.6.351.826.744.249.393.249.91zm16.723-13.147V13.478h-5.746v31.75h5.746V29.084q.33-.434.723-.785.414-.352.91-.6.537-.29 1.199-.434.661-.145 1.426-.145.992 0 1.778.269.785.248 1.343.785.558.538.848 1.406.31.868.31 2.067v13.58h5.746V31.689q0-2.46-.6-4.196-.578-1.757-1.632-2.873-1.054-1.116-2.522-1.633-1.467-.537-3.224-.537-1.2 0-2.274.351-1.075.352-1.964.992-.579.414-1.116.972-.517.537-.951 1.178zm33.631 19.286h5.83v-.352q-.435-.847-.662-2.025-.228-1.179-.228-2.977v-9.591q0-1.943-.723-3.41-.724-1.489-2.005-2.46-1.282-.972-3.039-1.468-1.736-.496-3.762-.496-2.253 0-4.01.579-1.736.558-2.935 1.53-1.22.97-1.86 2.252-.62 1.282-.62 2.708h5.746q0-.6.165-1.095.186-.497.558-.848.414-.393 1.075-.6.662-.227 1.571-.227 1.034 0 1.798.269.786.248 1.303.723.496.455.744 1.096.248.62.248 1.406v1.322h-3.204q-2.48 0-4.403.455-1.902.434-3.204 1.282-1.447.93-2.17 2.377-.724 1.426-.724 3.287 0 1.446.579 2.687.579 1.22 1.612 2.108 1.034.889 2.46 1.385 1.447.496 3.163.496 1.054 0 1.963-.207.91-.186 1.675-.537.744-.33 1.364-.786.62-.454 1.096-.971.103.6.248 1.137.144.537.351.95zm-5.478-4.031q-.806 0-1.426-.186-.6-.207-1.013-.538-.413-.35-.64-.847-.207-.517-.207-1.116 0-.765.29-1.406.288-.661.888-1.137.6-.454 1.55-.703.951-.268 2.295-.268h2.935v3.844q-.248.435-.682.869-.434.413-1.034.744-.6.33-1.343.537-.745.207-1.613.207zm16.992 12.63h5.746V43.285q.393.434.827.785.434.352.91.64.805.456 1.736.683.95.248 2.067.248 2.108 0 3.741-.868t2.75-2.398q1.095-1.509 1.653-3.597.579-2.087.579-4.526v-.434q0-2.543-.58-4.63-.557-2.11-1.673-3.618-1.117-1.488-2.75-2.294-1.633-.827-3.762-.827-1.033 0-1.943.227-.889.207-1.633.6-.62.33-1.157.785-.538.434-.992.992l-.207-2.19h-5.312zm14.262-20.01v.435q0 1.385-.248 2.625-.248 1.22-.785 2.15-.538.93-1.406 1.467-.847.538-2.067.538-.765 0-1.385-.145-.62-.165-1.095-.455-.497-.31-.89-.744-.371-.434-.64-.972v-9.343q.29-.578.682-1.012.413-.435.95-.724.476-.248 1.055-.372.579-.145 1.282-.145 1.22 0 2.067.517.868.517 1.426 1.406.537.91.785 2.15.27 1.219.27 2.625zm21.911 11.824q3.245 0 5.622-1.26 2.377-1.262 3.473-2.812l-2.873-3.1q-.992 1.281-2.584 1.922-1.592.64-3.287.64-1.199 0-2.211-.372-1.013-.372-1.799-1.054-.765-.661-1.22-1.467-.454-.827-.743-2.17v-.063h15.172v-2.439q0-2.46-.682-4.485-.682-2.047-1.985-3.494-1.323-1.447-3.224-2.232-1.881-.806-4.3-.806-2.336 0-4.32.847-1.984.848-3.431 2.377-1.447 1.53-2.253 3.659-.807 2.108-.807 4.672v.826q0 2.253.807 4.238.826 1.964 2.335 3.41 1.51 1.468 3.618 2.316 2.108.847 4.692.847zm-.682-18.541q1.095 0 1.922.351.848.33 1.426.91.58.599.91 1.405.33.806.33 1.716v.455h-9.425q.207-1.096.62-1.985.413-.889 1.034-1.53.599-.64 1.405-.971.806-.351 1.778-.351zM83.14 71.293v.434q0 2.46.702 4.547.703 2.067 2.067 3.597 1.344 1.53 3.307 2.398 1.985.847 4.507.847 2.5 0 4.464-.847 1.964-.868 3.308-2.398 1.343-1.53 2.046-3.597.703-2.087.703-4.547v-.434q0-2.44-.703-4.506-.703-2.088-2.046-3.618-1.364-1.53-3.328-2.398-1.964-.868-4.486-.868-2.521 0-4.485.868-1.943.869-3.287 2.398-1.364 1.53-2.067 3.618-.703 2.067-.703 4.506zm5.746.434v-.434q0-1.364.268-2.584.27-1.22.848-2.15.579-.93 1.488-1.467.91-.538 2.191-.538 1.303 0 2.212.538.91.537 1.488 1.467.558.93.827 2.15.269 1.22.269 2.584v.434q0 1.405-.269 2.646-.269 1.22-.827 2.129-.578.93-1.488 1.467-.91.538-2.17.538-1.303 0-2.233-.538-.91-.537-1.488-1.467-.579-.91-.848-2.13-.268-1.24-.268-2.645zm26.004 10.955h5.766V64.554h8.062v-4.237h-8.062v-1.22q0-.992.248-1.777.27-.786.807-1.323.599-.641 1.612-.972 1.013-.33 2.46-.33 1.343 0 2.335.123.993.124 1.778.29l.372-4.506q-.703-.124-1.364-.228-.64-.103-1.282-.186-.64-.083-1.323-.124-.661-.062-1.384-.062-2.295 0-4.155.6-1.86.578-3.163 1.736-1.302 1.157-2.005 2.852-.703 1.695-.703 3.907v1.22h-5.87v4.237h5.87zm-54.716 37.455h5.044l2.377-11.948.455-2.273.475 2.273 2.46 11.948h5.044l4.01-22.366h-5.271l-1.654 13.188-.29 2.17-.392-2.128-2.418-13.23h-3.845l-2.419 13.292-.392 2.129-.27-2.13-1.673-13.29h-5.25zm34.603.413q3.245 0 5.622-1.26 2.377-1.262 3.473-2.812l-2.873-3.1q-.992 1.281-2.584 1.922-1.592.64-3.287.64-1.199 0-2.211-.371-1.013-.372-1.799-1.055-.765-.661-1.22-1.467-.454-.827-.744-2.17v-.063h15.173v-2.439q0-2.46-.682-4.485-.683-2.047-1.985-3.493-1.323-1.447-3.224-2.233-1.881-.806-4.3-.806-2.336 0-4.32.847-1.984.848-3.431 2.378-1.447 1.53-2.253 3.658-.807 2.109-.807 4.672v.827q0 2.253.807 4.237.826 1.964 2.335 3.41 1.51 1.468 3.618 2.316 2.108.847 4.692.847zm-.682-18.541q1.095 0 1.922.351.848.33 1.426.91.58.6.91 1.405.33.806.33 1.716v.455h-9.425q.207-1.096.62-1.985.413-.888 1.033-1.53.6-.64 1.406-.97.806-.352 1.778-.352zm35.388 7.172v-.434q0-2.025-.372-3.803-.352-1.778-1.096-3.204-.475-.889-1.095-1.633-.62-.765-1.385-1.302-.951-.703-2.17-1.075-1.2-.372-2.647-.372-1.054 0-1.963.227-.89.207-1.654.641-.537.29-1.013.703-.475.393-.889.868v-11.41h-5.746v31.75h5.168l.268-2.377q.352.455.744.847.393.372.848.682.847.62 1.902.93 1.074.331 2.377.331 1.426 0 2.604-.372 1.2-.351 2.15-1.033 1.054-.724 1.819-1.82.785-1.095 1.26-2.438.435-1.22.662-2.646.228-1.447.228-3.06zm-5.747-.434v.434q0 .869-.082 1.675-.062.806-.228 1.488-.206.93-.62 1.674-.393.724-1.033 1.179-.455.33-1.075.516-.62.186-1.385.186-.889 0-1.592-.206-.682-.207-1.199-.6-.434-.31-.765-.723-.31-.434-.558-.951v-8.91q.186-.392.414-.723.227-.35.496-.62.558-.558 1.343-.847.786-.29 1.82-.29.764 0 1.364.187.6.165 1.075.516.723.558 1.074 1.24.373.662.6 1.51.186.723.269 1.55.082.827.082 1.715z" style="font-weight:700;font-family:'Roboto Mono';text-align:end;text-anchor:end;fill:#8d8d8d;stroke-width:1.823;stroke-miterlimit:4;stroke-dasharray:none;stroke-linejoin:round" aria-label="shape of web"/></g></svg>